<?xml version="1.0" standalone="no"?>
<!DOCTYPE svg PUBLIC "-//W3C//DTD SVG 20010904//EN"
 "http://www.w3.org/TR/2001/REC-SVG-20010904/DTD/svg10.dtd">
<svg version="1.0" xmlns="http://www.w3.org/2000/svg"
 width="752.000000pt" height="752.000000pt" viewBox="0 0 752.000000 752.000000"
 preserveAspectRatio="xMidYMid meet">
<metadata>
Created by potrace 1.14, written by Peter Selinger 2001-2017
</metadata>
<g transform="translate(0.000000,752.000000) scale(0.100000,-0.100000)"
fill="#000000" stroke="none">
<path d="M1811 7479 c-118 -23 -243 -112 -281 -201 -31 -73 -26 -194 12 -259
60 -103 180 -182 300 -199 165 -24 315 35 391 152 l32 50 68 -6 c215 -20 488
-114 671 -231 210 -134 384 -338 485 -570 58 -131 58 -134 -9 -151 -132 -34
-210 -97 -261 -210 -23 -51 -35 -65 -57 -70 -314 -74 -485 -127 -696 -215
-364 -153 -725 -379 -1026 -642 -112 -98 -351 -343 -448 -460 -624 -749 -927
-1648 -816 -2417 46 -317 172 -620 365 -878 92 -123 305 -336 431 -430 528
-395 1260 -640 2172 -727 228 -22 1181 -21 1392 0 1225 127 2126 550 2565
1204 314 466 408 1053 273 1693 -191 903 -805 1774 -1649 2335 -201 134 -449
270 -632 347 -187 78 -507 170 -735 211 l-97 17 -42 53 c-54 67 -116 115 -202
156 -37 17 -67 35 -67 40 0 18 49 137 88 214 92 182 254 365 425 479 170 113
398 204 612 244 193 36 176 38 209 -14 63 -100 175 -153 338 -161 106 -6 107
-6 182 30 146 69 209 158 210 297 1 65 -3 82 -29 129 -72 129 -256 218 -399
192 -30 -6 -81 -21 -115 -35 -33 -15 -71 -26 -85 -26 -33 0 -109 -77 -138
-139 l-22 -48 -119 -18 c-217 -32 -430 -97 -604 -186 -153 -78 -259 -155 -384
-279 -163 -162 -267 -323 -350 -544 -25 -66 -35 -83 -40 -70 -4 11 -20 53 -34
94 -76 209 -225 429 -391 575 -245 213 -561 354 -926 411 l-117 18 -16 42
c-37 96 -150 181 -274 204 -62 11 -98 11 -160 -1z m174 -188 c157 -71 109
-248 -70 -259 -79 -5 -122 9 -166 54 -28 29 -34 43 -34 79 0 111 150 181 270
126z m3730 -35 c70 -45 91 -85 68 -131 -19 -36 -33 -48 -98 -81 -40 -22 -58
-25 -101 -21 -118 12 -205 97 -170 165 18 35 51 64 101 91 59 31 127 23 200
-23z m-1525 -1721 c740 -117 1369 -431 1909 -951 565 -544 926 -1216 1037
-1929 25 -164 23 -454 -5 -609 -140 -781 -831 -1350 -1962 -1616 -535 -126
-1284 -177 -1904 -129 -332 25 -635 73 -941 149 -625 154 -1108 401 -1439 735
-280 283 -429 618 -466 1047 -47 551 187 1253 619 1853 173 239 451 536 670
713 548 444 1124 685 1807 756 102 10 574 -2 675 -19z"/>
<path d="M4712 4749 c-143 -19 -302 -150 -385 -317 -56 -112 -80 -189 -108
-348 -72 -410 -8 -779 185 -1068 169 -252 415 -368 651 -306 240 62 461 247
578 483 100 200 104 436 13 675 -218 569 -598 928 -934 881z m171 -223 c96
-40 210 -121 272 -194 126 -149 250 -366 310 -543 64 -187 56 -354 -23 -513
-108 -215 -362 -389 -548 -374 -165 14 -365 224 -448 472 -50 146 -69 393 -47
585 31 264 147 501 281 572 50 26 131 24 203 -5z"/>
<path d="M4863 3760 c-90 -46 -146 -143 -145 -250 1 -110 53 -199 144 -244 89
-44 168 -32 246 38 98 89 113 263 32 374 -46 64 -101 96 -174 100 -47 2 -70
-2 -103 -18z"/>
<path d="M2633 4735 c-143 -40 -318 -161 -426 -295 -187 -231 -320 -493 -373
-732 -22 -100 -22 -283 0 -367 58 -218 259 -466 456 -566 121 -62 283 -93 381
-75 202 39 416 235 532 489 74 162 104 283 116 457 27 403 -67 756 -253 952
-95 99 -186 144 -301 149 -49 2 -100 -3 -132 -12z m227 -206 c123 -56 209
-213 267 -487 30 -147 36 -358 14 -497 -45 -280 -194 -520 -376 -606 -152 -73
-353 -10 -531 166 -84 83 -137 165 -170 265 -28 81 -26 249 4 357 60 222 202
462 382 644 160 162 290 212 410 158z"/>
<path d="M2526 3790 c-69 -21 -132 -85 -167 -170 -23 -56 -18 -175 9 -235 57
-125 175 -186 294 -151 71 21 120 64 157 138 55 109 39 250 -36 338 -64 74
-168 106 -257 80z"/>
<path d="M3578 2694 c-153 -36 -243 -134 -223 -241 11 -59 93 -134 181 -164
97 -33 241 -33 338 0 85 29 158 95 175 156 46 173 -217 311 -471 249z"/>
<path d="M5424 2141 c-81 -50 -55 -138 98 -325 l57 -70 -20 -28 c-39 -54 -148
-155 -235 -216 -218 -155 -564 -281 -939 -342 -266 -43 -785 -64 -1045 -41
-593 52 -1037 220 -1320 501 -124 123 -122 117 -54 191 31 33 78 95 105 137
56 87 63 132 28 176 -17 22 -28 26 -67 26 -26 0 -54 -6 -62 -13 -8 -7 -37 -46
-65 -87 -69 -105 -271 -306 -361 -359 -40 -23 -89 -45 -110 -48 -53 -8 -73
-20 -85 -50 -22 -58 33 -133 97 -133 49 0 148 43 238 104 l79 53 47 -56 c229
-275 617 -478 1100 -575 572 -115 1357 -89 1900 65 363 102 616 237 824 441
l109 106 71 -47 c179 -121 272 -147 327 -92 62 63 22 151 -85 184 -31 10 -89
40 -130 67 -106 71 -280 259 -355 383 -42 68 -88 84 -147 48z"/>
</g>
</svg>
